<?xml version="1.0" encoding="utf-8"?>
<!-- Generator: Adobe Illustrator 16.0.0, SVG Export Plug-In . SVG Version: 6.00 Build 0)  -->
<!DOCTYPE svg PUBLIC "-//W3C//DTD SVG 1.1//EN" "http://www.w3.org/Graphics/SVG/1.1/DTD/svg11.dtd">
<svg version="1.1" id="图层_1" xmlns="http://www.w3.org/2000/svg" xmlns:xlink="http://www.w3.org/1999/xlink" x="0px" y="0px"
	 width="662px" height="461px" viewBox="0 0 662 461" enable-background="new 0 0 662 461" xml:space="preserve">
<filter  height="142.4%" width="128.3%" y="-21.2%" x="-14.2%" id="filter-8" filterUnits="objectBoundingBox">
	<feMorphology  radius="0.5" in="SourceAlpha" operator="dilate" result="shadowSpreadOuter1"></feMorphology>
	<feOffset  dx="0" dy="0" in="shadowSpreadOuter1" result="shadowOffsetOuter1"></feOffset>
	<feGaussianBlur  stdDeviation="4.5" in="shadowOffsetOuter1" result="shadowBlurOuter1"></feGaussianBlur>
	<feColorMatrix  type="matrix" values="0 0 0 0 0   0 0 0 0 0   0 0 0 0 0  0 0 0 0.07 0" in="shadowBlurOuter1"></feColorMatrix>
</filter>
<filter  height="142.4%" width="128.3%" y="-21.2%" x="-14.2%" id="filter-6" filterUnits="objectBoundingBox">
	<feMorphology  radius="0.5" in="SourceAlpha" operator="dilate" result="shadowSpreadOuter1"></feMorphology>
	<feOffset  dx="0" dy="0" in="shadowSpreadOuter1" result="shadowOffsetOuter1"></feOffset>
	<feGaussianBlur  stdDeviation="4.5" in="shadowOffsetOuter1" result="shadowBlurOuter1"></feGaussianBlur>
	<feColorMatrix  type="matrix" values="0 0 0 0 0   0 0 0 0 0   0 0 0 0 0  0 0 0 0.07 0" in="shadowBlurOuter1"></feColorMatrix>
</filter>
<filter  height="142.4%" width="128.3%" y="-21.2%" x="-14.2%" id="filter-4" filterUnits="objectBoundingBox">
	<feMorphology  radius="0.5" in="SourceAlpha" operator="dilate" result="shadowSpreadOuter1"></feMorphology>
	<feOffset  dx="0" dy="0" in="shadowSpreadOuter1" result="shadowOffsetOuter1"></feOffset>
	<feGaussianBlur  stdDeviation="4.5" in="shadowOffsetOuter1" result="shadowBlurOuter1"></feGaussianBlur>
	<feColorMatrix  type="matrix" values="0 0 0 0 0   0 0 0 0 0   0 0 0 0 0  0 0 0 0.07 0" in="shadowBlurOuter1"></feColorMatrix>
</filter>
<filter  height="142.4%" width="128.3%" y="-21.2%" x="-14.2%" id="filter-22" filterUnits="objectBoundingBox">
	<feMorphology  radius="0.5" in="SourceAlpha" operator="dilate" result="shadowSpreadOuter1"></feMorphology>
	<feOffset  dx="0" dy="0" in="shadowSpreadOuter1" result="shadowOffsetOuter1"></feOffset>
	<feGaussianBlur  stdDeviation="4.5" in="shadowOffsetOuter1" result="shadowBlurOuter1"></feGaussianBlur>
	<feColorMatrix  type="matrix" values="0 0 0 0 0   0 0 0 0 0   0 0 0 0 0  0 0 0 0.07 0" in="shadowBlurOuter1"></feColorMatrix>
</filter>
<filter  height="142.4%" width="128.3%" y="-21.2%" x="-14.2%" id="filter-20" filterUnits="objectBoundingBox">
	<feMorphology  radius="0.5" in="SourceAlpha" operator="dilate" result="shadowSpreadOuter1"></feMorphology>
	<feOffset  dx="0" dy="0" in="shadowSpreadOuter1" result="shadowOffsetOuter1"></feOffset>
	<feGaussianBlur  stdDeviation="4.5" in="shadowOffsetOuter1" result="shadowBlurOuter1"></feGaussianBlur>
	<feColorMatrix  type="matrix" values="0 0 0 0 0   0 0 0 0 0   0 0 0 0 0  0 0 0 0.07 0" in="shadowBlurOuter1"></feColorMatrix>
</filter>
<filter  height="113.5%" width="109.1%" y="-6.7%" x="-4.6%" id="filter-2" filterUnits="objectBoundingBox">
	<feMorphology  radius="1" in="SourceAlpha" operator="dilate" result="shadowSpreadOuter1"></feMorphology>
	<feOffset  dx="0" dy="0" in="shadowSpreadOuter1" result="shadowOffsetOuter1"></feOffset>
	<feGaussianBlur  stdDeviation="8.5" in="shadowOffsetOuter1" result="shadowBlurOuter1"></feGaussianBlur>
	<feColorMatrix  type="matrix" values="0 0 0 0 0   0 0 0 0 0   0 0 0 0 0  0 0 0 0.25 0" in="shadowBlurOuter1"></feColorMatrix>
</filter>
<filter  height="142.4%" width="128.3%" y="-21.2%" x="-14.2%" id="filter-18" filterUnits="objectBoundingBox">
	<feMorphology  radius="0.5" in="SourceAlpha" operator="dilate" result="shadowSpreadOuter1"></feMorphology>
	<feOffset  dx="0" dy="0" in="shadowSpreadOuter1" result="shadowOffsetOuter1"></feOffset>
	<feGaussianBlur  stdDeviation="4.5" in="shadowOffsetOuter1" result="shadowBlurOuter1"></feGaussianBlur>
	<feColorMatrix  type="matrix" values="0 0 0 0 0   0 0 0 0 0   0 0 0 0 0  0 0 0 0.07 0" in="shadowBlurOuter1"></feColorMatrix>
</filter>
<filter  height="142.4%" width="128.3%" y="-21.2%" x="-14.2%" id="filter-16" filterUnits="objectBoundingBox">
	<feMorphology  radius="0.5" in="SourceAlpha" operator="dilate" result="shadowSpreadOuter1"></feMorphology>
	<feOffset  dx="0" dy="0" in="shadowSpreadOuter1" result="shadowOffsetOuter1"></feOffset>
	<feGaussianBlur  stdDeviation="4.5" in="shadowOffsetOuter1" result="shadowBlurOuter1"></feGaussianBlur>
	<feColorMatrix  type="matrix" values="0 0 0 0 0   0 0 0 0 0   0 0 0 0 0  0 0 0 0.07 0" in="shadowBlurOuter1"></feColorMatrix>
</filter>
<filter  height="142.4%" width="128.3%" y="-21.2%" x="-14.2%" id="filter-14" filterUnits="objectBoundingBox">
	<feMorphology  radius="0.5" in="SourceAlpha" operator="dilate" result="shadowSpreadOuter1"></feMorphology>
	<feOffset  dx="0" dy="0" in="shadowSpreadOuter1" result="shadowOffsetOuter1"></feOffset>
	<feGaussianBlur  stdDeviation="4.5" in="shadowOffsetOuter1" result="shadowBlurOuter1"></feGaussianBlur>
	<feColorMatrix  type="matrix" values="0 0 0 0 0   0 0 0 0 0   0 0 0 0 0  0 0 0 0.07 0" in="shadowBlurOuter1"></feColorMatrix>
</filter>
<filter  height="203.1%" width="111.3%" y="-51.5%" x="-5.6%" id="filter-12" filterUnits="objectBoundingBox">
	<feMorphology  radius="0.5" in="SourceAlpha" operator="dilate" result="shadowSpreadOuter1"></feMorphology>
	<feOffset  dx="0" dy="0" in="shadowSpreadOuter1" result="shadowOffsetOuter1"></feOffset>
	<feGaussianBlur  stdDeviation="4.5" in="shadowOffsetOuter1" result="shadowBlurOuter1"></feGaussianBlur>
	<feColorMatrix  type="matrix" values="0 0 0 0 0   0 0 0 0 0   0 0 0 0 0  0 0 0 0.07 0" in="shadowBlurOuter1"></feColorMatrix>
</filter>
<g>
	<path id="path-23" fill="#FFFFFF" d="M158.772,48h353.801c0.929,0,1.682,0.753,1.682,1.682v16.636c0,0.929-0.753,1.682-1.682,1.682
		H158.772c-0.929,0-1.682-0.753-1.682-1.682V49.682C157.09,48.753,157.843,48,158.772,48z"/>
</g>
<title>Browser Chrome Copy</title>
<desc>Created with Sketch.</desc>
<g id="Rectangle">
	<g filter="url(#filter-2)">
		<path id="path-1_2_" d="M25.728,19h610.544c3.716,0,6.729,3.012,6.729,6.728v412.067c0,2.322-1.883,4.205-4.205,4.205H23.205
			c-2.322,0-4.205-1.883-4.205-4.205V25.728C19,22.012,22.012,19,25.728,19z"/>
	</g>
	<g>
		<path id="path-1_1_" fill="#F9F9FA" d="M25.728,19h610.544c3.716,0,6.729,3.012,6.729,6.728v412.067
			c0,2.322-1.883,4.205-4.205,4.205H23.205c-2.322,0-4.205-1.883-4.205-4.205V25.728C19,22.012,22.012,19,25.728,19z"/>
	</g>
</g>
<g id="Rectangle_1_">
	<g filter="url(#filter-4)">
		<path id="path-3_2_" d="M107.165,207.115h99.849c1.672,0,3.027,1.355,3.027,3.028v64.619c0,1.672-1.355,3.027-3.027,3.027h-99.849
			c-1.672,0-3.027-1.355-3.027-3.027v-64.619C104.138,208.471,105.493,207.115,107.165,207.115z"/>
	</g>
	<g>
		<path id="path-3_1_" fill="#FFFFFF" d="M107.165,207.115h99.849c1.672,0,3.027,1.355,3.027,3.028v64.619
			c0,1.672-1.355,3.027-3.027,3.027h-99.849c-1.672,0-3.027-1.355-3.027-3.027v-64.619
			C104.138,208.471,105.493,207.115,107.165,207.115z"/>
	</g>
</g>
<g id="Rectangle-Copy-6">
	<g filter="url(#filter-6)">
		<path id="path-5_2_" d="M107.165,288.182h99.849c1.672,0,3.027,1.355,3.027,3.027v64.619c0,1.672-1.355,3.027-3.027,3.027h-99.849
			c-1.672,0-3.027-1.355-3.027-3.027v-64.619C104.138,289.537,105.493,288.182,107.165,288.182z"/>
	</g>
	<g>
		<path id="path-5_1_" fill="#FFFFFF" d="M107.165,288.182h99.849c1.672,0,3.027,1.355,3.027,3.027v64.619
			c0,1.672-1.355,3.027-3.027,3.027h-99.849c-1.672,0-3.027-1.355-3.027-3.027v-64.619
			C104.138,289.537,105.493,288.182,107.165,288.182z"/>
	</g>
</g>
<g id="Rectangle-Copy-3">
	<g filter="url(#filter-8)">
		<path id="path-7_2_" d="M223.451,207.115H323.3c1.672,0,3.027,1.355,3.027,3.028v64.619c0,1.672-1.355,3.027-3.027,3.027h-99.849
			c-1.672,0-3.027-1.355-3.027-3.027v-64.619C220.424,208.471,221.78,207.115,223.451,207.115z"/>
	</g>
	<g>
		<path id="path-7_1_" fill="#FFFFFF" d="M223.451,207.115H323.3c1.672,0,3.027,1.355,3.027,3.028v64.619
			c0,1.672-1.355,3.027-3.027,3.027h-99.849c-1.672,0-3.027-1.355-3.027-3.027v-64.619
			C220.424,208.471,221.78,207.115,223.451,207.115z"/>
	</g>
</g>
<g id="Group-19" transform="translate(178.582363, 119.520885)">
	<g id="Rectangle-Copy-10">
		<g filter="url(#filter-12)">
			<path id="path-11_2_" d="M22.027,19h259.742c1.672,0,3.027,1.355,3.027,3.027v23.045c0,1.672-1.355,3.028-3.027,3.028H22.027
				c-1.672,0-3.027-1.355-3.027-3.028V22.027C19,20.356,20.355,19,22.027,19z"/>
		</g>
		<g>
			<path id="path-11_1_" fill="#FFFFFF" d="M22.027,19h259.742c1.672,0,3.027,1.355,3.027,3.027v23.045
				c0,1.672-1.355,3.028-3.027,3.028H22.027c-1.672,0-3.027-1.355-3.027-3.028V22.027C19,20.356,20.355,19,22.027,19z"/>
		</g>
	</g>
	<path id="Rectangle-Copy-11" fill="#BBBBBB" d="M29.685,30.64h107.59c0.465,0,0.841,0.376,0.841,0.841v4.138
		c0,0.465-0.376,0.841-0.841,0.841H29.685c-0.465,0-0.841-0.376-0.841-0.841v-4.138C28.845,31.017,29.221,30.64,29.685,30.64z"/>
	<g id="Icons-_x2F_-search" transform="translate(237.248438, 7.760197)">
		<g id="line" transform="translate(0.984433, 0.970025)">
			<ellipse id="Oval" fill="none" stroke="#9B9B9B" stroke-width="1.1213" cx="23.594" cy="23.527" rx="4.594" ry="4.527"/>
			<path id="Path-201" fill="none" stroke="#9B9B9B" stroke-width="1.1213" stroke-linecap="round" d="M26.875,26.76l3.938,3.88"/>
		</g>
	</g>
</g>
<g id="Rectangle-Copy-7">
	<g filter="url(#filter-14)">
		<path id="path-13_2_" d="M223.451,288.182H323.3c1.672,0,3.027,1.355,3.027,3.027v64.619c0,1.672-1.355,3.027-3.027,3.027h-99.849
			c-1.672,0-3.027-1.355-3.027-3.027v-64.619C220.424,289.537,221.78,288.182,223.451,288.182z"/>
	</g>
	<g>
		<path id="path-13_1_" fill="#FFFFFF" d="M223.451,288.182H323.3c1.672,0,3.027,1.355,3.027,3.027v64.619
			c0,1.672-1.355,3.027-3.027,3.027h-99.849c-1.672,0-3.027-1.355-3.027-3.027v-64.619
			C220.424,289.537,221.78,288.182,223.451,288.182z"/>
	</g>
</g>
<g id="Rectangle-Copy-4">
	<g filter="url(#filter-16)">
		<path id="path-15_2_" d="M339.738,207.115h99.849c1.672,0,3.027,1.355,3.027,3.028v64.619c0,1.672-1.355,3.027-3.027,3.027
			h-99.849c-1.672,0-3.027-1.355-3.027-3.027v-64.619C336.71,208.471,338.066,207.115,339.738,207.115z"/>
	</g>
	<g>
		<path id="path-15_1_" fill="#FFFFFF" d="M339.738,207.115h99.849c1.672,0,3.027,1.355,3.027,3.028v64.619
			c0,1.672-1.355,3.027-3.027,3.027h-99.849c-1.672,0-3.027-1.355-3.027-3.027v-64.619
			C336.71,208.471,338.066,207.115,339.738,207.115z"/>
	</g>
</g>
<g id="Rectangle-Copy-8">
	<g filter="url(#filter-18)">
		<path id="path-17_2_" d="M339.738,288.182h99.849c1.672,0,3.027,1.355,3.027,3.027v64.619c0,1.672-1.355,3.027-3.027,3.027
			h-99.849c-1.672,0-3.027-1.355-3.027-3.027v-64.619C336.71,289.537,338.066,288.182,339.738,288.182z"/>
	</g>
	<g>
		<path id="path-17_1_" fill="#FFFFFF" d="M339.738,288.182h99.849c1.672,0,3.027,1.355,3.027,3.027v64.619
			c0,1.672-1.355,3.027-3.027,3.027h-99.849c-1.672,0-3.027-1.355-3.027-3.027v-64.619
			C336.71,289.537,338.066,288.182,339.738,288.182z"/>
	</g>
</g>
<g id="Rectangle-Copy-5">
	<g filter="url(#filter-20)">
		<path id="path-19_2_" d="M454.986,207.115h99.849c1.672,0,3.027,1.355,3.027,3.028v64.619c0,1.672-1.355,3.027-3.027,3.027
			h-99.849c-1.672,0-3.027-1.355-3.027-3.027v-64.619C451.958,208.471,453.314,207.115,454.986,207.115z"/>
	</g>
	<g>
		<path id="path-19_1_" fill="#FFFFFF" d="M454.986,207.115h99.849c1.672,0,3.027,1.355,3.027,3.028v64.619
			c0,1.672-1.355,3.027-3.027,3.027h-99.849c-1.672,0-3.027-1.355-3.027-3.027v-64.619
			C451.958,208.471,453.314,207.115,454.986,207.115z"/>
	</g>
</g>
<g id="Rectangle-Copy-9">
	<g filter="url(#filter-22)">
		<path id="path-21_2_" d="M454.986,288.182h99.849c1.672,0,3.027,1.355,3.027,3.027v64.619c0,1.672-1.355,3.027-3.027,3.027
			h-99.849c-1.672,0-3.027-1.355-3.027-3.027v-64.619C451.958,289.537,453.314,288.182,454.986,288.182z"/>
	</g>
	<g>
		<path id="path-21_1_" fill="#FFFFFF" d="M454.986,288.182h99.849c1.672,0,3.027,1.355,3.027,3.027v64.619
			c0,1.672-1.355,3.027-3.027,3.027h-99.849c-1.672,0-3.027-1.355-3.027-3.027v-64.619
			C451.958,289.537,453.314,288.182,454.986,288.182z"/>
	</g>
</g>
<path id="Rectangle-6" fill="#2C2831" d="M23.205,19h615.59c2.322,0,4.205,1.883,4.205,4.205v19.699l0,0H19V23.205
	C19,20.883,20.883,19,23.205,19z"/>
<path id="Rectangle-6-Copy" fill="#E1E1E2" d="M19,422.253h624v15.542c0,2.322-1.883,4.205-4.205,4.205H23.205
	c-2.322,0-4.205-1.883-4.205-4.205V422.253L19,422.253z"/>
<rect id="Rectangle-6_1_" x="56.378" y="19" fill="#E1E1E2" width="123.554" height="23.904"/>
<rect id="Combined-Shape_5_" x="19" y="42.904" fill="#E1E1E2" width="624" height="31.179"/>
<g id="Toolbar---Field">
	<path id="path-23_1_" fill="#FFFFFF" d="M158.772,48h353.801c0.929,0,1.682,0.753,1.682,1.682v16.636
		c0,0.929-0.753,1.682-1.682,1.682H158.772c-0.929,0-1.682-0.753-1.682-1.682V49.682C157.09,48.753,157.843,48,158.772,48z"/>
</g>
<path id="Rectangle_3_" fill="#BEBEBF" d="M66.365,52.258h8.058c0.929,0,1.682,0.753,1.682,1.682v8.068
	c0,0.929-0.753,1.682-1.682,1.682h-8.058c-0.929,0-1.682-0.753-1.682-1.682V53.94C64.684,53.011,65.437,52.258,66.365,52.258z"/>
<path id="Rectangle_4_" fill="#BEBEBF" d="M623.916,52.258h8.057c0.93,0,1.683,0.753,1.683,1.682v8.068
	c0,0.929-0.753,1.682-1.683,1.682h-8.057c-0.929,0-1.682-0.753-1.682-1.682V53.94C622.235,53.011,622.988,52.258,623.916,52.258z"/>
<path id="Rectangle_5_" fill="#BEBEBF" d="M85.055,27.314h52.702c0.929,0,1.683,0.753,1.683,1.682v4.951
	c0,0.929-0.754,1.682-1.683,1.682H85.055c-0.929,0-1.683-0.753-1.683-1.682v-4.951C83.372,28.067,84.126,27.314,85.055,27.314z"/>
<path id="Rectangle-Copy-2" fill="#BBBBBB" d="M187.002,55.376h151.981c0.465,0,0.842,0.376,0.842,0.841v4.554
	c0,0.464-0.377,0.841-0.842,0.841H187.002c-0.464,0-0.841-0.376-0.841-0.841v-4.554C186.161,55.752,186.538,55.376,187.002,55.376z"
	/>
<path id="Rectangle_6_" fill="#BEBEBF" d="M66.365,24.196h12.21c0.93,0,1.683,0.753,1.683,1.682v12.226
	c0,0.929-0.753,1.682-1.683,1.682h-12.21c-0.929,0-1.682-0.753-1.682-1.682V25.878C64.684,24.95,65.437,24.196,66.365,24.196z"/>
<path id="Rectangle_7_" fill="#BEBEBF" d="M86.093,52.258h8.057c0.93,0,1.683,0.753,1.683,1.682v8.068
	c0,0.929-0.753,1.682-1.683,1.682h-8.057c-0.929,0-1.682-0.753-1.682-1.682V53.94C84.411,53.011,85.164,52.258,86.093,52.258z"/>
<path id="Rectangle_8_" fill="#BEBEBF" d="M105.821,52.258h8.057c0.929,0,1.682,0.753,1.682,1.682v8.068
	c0,0.929-0.753,1.682-1.682,1.682h-8.057c-0.93,0-1.683-0.753-1.683-1.682V53.94C104.138,53.011,104.891,52.258,105.821,52.258z"/>
<ellipse id="Button" fill="#BEBEBF" cx="43.4" cy="57.974" rx="10.901" ry="10.913"/>
<polygon id="Separator" fill="none" points="28.344,65.722 643,65.722 643,66.501 28.344,66.501 "/>
<g id="Group-3-Copy-3" transform="translate(22.841930, 77.948403)">
	<path id="Fill-1_2_" fill="#4A4A4A" d="M44.753,30.307c-0.01-0.062-0.017-0.095-0.017-0.095c-0.209,0.373-0.472,0.69-0.472,0.69
		c0-2.258-1.678-5.211-2.764-6.854c-0.365-0.553-0.664-0.957-0.809-1.135c-0.575-0.71-0.862-1.625-0.862-1.625
		c-0.238,0.35-0.378,0.746-0.453,1.014c-0.053,0.189-0.073,0.314-0.073,0.314s-0.182-0.286-0.717-0.792
		c-0.191-0.182-0.429-0.391-0.719-0.626C36.768,20.305,36.408,19,36.408,19s-0.58,0.573-1.135,1.534
		c-0.151,0.264-0.302,0.556-0.438,0.874c-0.318,0.746-0.558,1.63-0.558,2.604c0,2.906,2.465,4.806,2.465,4.806
		s1.531,0.778,1.531,4.044s-3.143,5.384-6.111,5.384c-2.967,0-4.292-2.105-4.292-2.105c2.599,0.666,3.494,0.045,4.292-0.458
		c0.799-0.503,1.229-0.412,1.724-0.412c0.495,0,0.527-0.549-0.239-1.205c0,0-0.606-0.503-1.484-0.503
		c-0.877,0-1.531,0.488-2.425,0.488c0,0-1.454-0.07-2.25-1.236c-0.811-1.188-0.032-2.73,1.309-1.526c0,0,0.367-0.427,0.224-1.632
		c0,0,0.111-0.29,1.037-0.641c0.925-0.351,1.914-0.732,1.914-1.8c0,0-0.111-0.381-1.834-0.443c-0.76-0.027-1.196-0.512-1.448-1.048
		c0.001-0.002,0.527-1.438,2.019-2.25c0.02-0.01,0.016-0.037-0.006-0.042c-0.342-0.08-2.168-0.416-3.565,1.113
		c0,0-0.462-0.366-1.866-0.366c-0.334,0-0.694,0.031-1.069,0.107v0c-0.066-0.064-0.129-0.129-0.188-0.194
		c-0.209-0.229-0.373-0.464-0.501-0.694c-0.444-0.794-0.465-1.524-0.462-1.727c0.001-0.02-0.024-0.031-0.04-0.017
		c-2.091,1.872-1.772,4.313-1.772,4.313c-0.889,0.941-1.679,2.338-2.198,4.375c-0.004,0.013,0.016,0.021,0.022,0.009
		c0.118-0.212,0.446-0.786,0.802-1.274c0,0-0.848,1.272-0.863,4.396c0,0.014,0.021,0.017,0.023,0.003
		c0.063-0.219,0.23-0.815,0.367-1.303h0.003c-0.002,0.069-0.003,0.138-0.003,0.208c0,6.745,5.719,12.213,12.772,12.213
		c2.813,0,4.517-0.59,5.527-1.2c0.131-0.078,0.249-0.157,0.357-0.235c0.786-0.566,1.009-1.085,1.009-1.085
		c0.753-0.315,1.372-0.659,1.881-1.011c0.463-0.321,0.835-0.651,1.134-0.974c0.187-0.203,0.345-0.403,0.479-0.598
		c0.403-0.588,0.584-1.125,0.663-1.521c0.083-0.413,0.057-0.671,0.057-0.671c0.289-0.431,0.527-0.871,0.724-1.308
		C45.164,33.381,44.836,30.823,44.753,30.307"/>
</g>
<g>
	<path fill="#888888" d="M520.402,235.539c-0.318-1.849-1.365-3.306-3.611-4.112c-0.735-0.233-1.457-0.398-2.186-0.466
		c-1.212-0.172-2.413-0.172-3.63-0.104c-1.358,0.104-2.815,0.337-4.103,0.571c-1.688,0.33-3.219,0.648-3.378,0.648
		c0.244-0.558,0.563-1.22,0.809-1.774c-0.324-0.068-0.723-0.154-1.139-0.222c-0.717-0.184-1.444-0.33-2.16-0.49
		c-0.253-0.086-0.569-0.157-0.809-0.244c-0.484,1.849-2.087,4.982-3.705,6.924c-0.245,0.336-0.477,0.637-0.808,0.889l0.808,0.403
		l2.168,0.968l1.946-2.18c0.146-0.08,0.306-0.245,0.398-0.318c0.396-0.244,0.795-0.33,1.277-0.33l-1.277,1.86l-1.61,2.576
		c0.397,0.397,0.802,0.711,1.211,1.047c-0.41,0.08-0.895,0.153-1.298,0.153c0,0.729,0,1.451,0,2.26c0.563,0,1.127,0,1.696,0
		c0.715,0,1.443,0,2.16,0c0.575,0,1.138,0,1.702,0c0,1.449,0,2.975,0,4.511c-0.809-0.153-1.372-0.312-1.702-0.483
		c-0.797-0.41-0.477-1.213-0.477-3.141c-0.564,0-1.128,0-1.684,0.073c-0.809,0-1.61,0-2.419,0c-0.075,0.813-0.16,1.685-0.075,2.504
		c0.075,2.167,1.116,3.207,2.494,3.612c0.715,0.171,1.443,0.229,2.16,0.229c0.814,0,1.702-0.06,2.51-0.146
		c1.848-0.239,3.697-0.717,5.301-1.53c0.488-0.239,0.887-0.49,1.292-0.808l0.808,2.009l1.531-0.624l1.292-0.49
		c-0.245,0.807-0.725,1.279-1.292,1.59c-1.047,0.51-2.413,0.344-3.63,0.186c-0.479-0.086-0.882-0.186-1.274-0.244
		c-0.159,0.796-0.329,1.689-0.489,2.498c0.649,0.078,1.212,0.158,1.764,0.158c1.383,0.16,2.583,0.072,3.63-0.08
		c4.267-0.576,5.797-3.055,6.113-6.359C520.957,243.828,521.042,239.092,520.402,235.539z M504.865,241.338
		c-0.564,0-1.127,0-1.702,0c-0.557,0-1.126,0-1.684,0l1.684-1.685l0.649-0.649h1.053
		C504.865,239.813,504.865,240.621,504.865,241.338z M515.897,248.824l-1.292-3.135l-0.889-1.936l-2.498,0.729l0.563,1.928
		c-0.318,0.233-0.563,0.404-0.807,0.479c-0.551,0.324-0.882,0.404-1.434,0.574c0-1.295,0-2.582,0-3.867h1.434h3.63h0.404
		c0-0.809,0-1.53,0-2.26c-0.159,0-0.318,0-0.404,0c-1.212,0-2.413,0-3.63,0c-0.479,0-0.955,0-1.434,0c0-0.717,0-1.524,0-2.245
		c0.479,0,0.955,0,1.434,0c1.217,0,2.418,0,3.63,0c0.151,0,0.324,0,0.483,0c0-0.724,0-1.384,0-2.021h-0.483l-3.63-0.079
		l-5.459-0.086l1.211-2.088c-0.489-0.085-0.894-0.232-1.385-0.392c1.531-0.489,3.625-1.212,5.633-1.457
		c1.383-0.085,2.663,0,3.63,0.551c0.151,0.171,0.324,0.257,0.483,0.417C517.34,235.944,516.703,246.571,515.897,248.824z"/>
	<path fill="#888888" d="M491.899,235.865c-0.564,1.04-1.04,2.02-1.609,3.066c7.082,3.135,4.426,5.706-1.365,11.436
		c0.311,0.307,3.377,2.313,4.262,2.814c1.126-2.589,2.497-4.842,3.304-6.941c1.053-2.486,1.446-4.658,0-6.759
		C495.682,238.275,494.231,237.07,491.899,235.865z"/>
	<path fill="#888888" d="M494.243,234.39c1.585,0,2.872-1.157,2.872-2.597c0-1.432-1.286-2.601-2.872-2.601
		c-1.579,0-2.858,1.169-2.858,2.601C491.385,233.232,492.664,234.39,494.243,234.39z"/>
</g>
<g>
	<path fill="#888888" d="M171.333,239.18c0-0.952-0.795-3.827-3.779-3.827c-2.966,0-3.367,2.71-3.367,4.631
		c0,1.839,0.149,4.39,3.857,4.316C171.738,244.223,171.333,240.141,171.333,239.18z"/>
	<path fill="#888888" d="M161.453,235.826c2.492,0.33,4.105-2.309,4.416-4.306c0.319-1.994-1.281-4.304-3.049-4.696
		c-1.769-0.414-3.972,2.395-4.184,4.219C158.402,233.275,158.967,235.517,161.453,235.826z"/>
	<path fill="#888888" d="M153.42,235.517c1.863,0,3.376-2.125,3.376-4.75c0-2.633-1.513-4.752-3.376-4.752
		c-1.857,0-3.374,2.119-3.374,4.752C150.046,233.392,151.562,235.517,153.42,235.517z"/>
	<path fill="#888888" d="M147.154,242.226c3.38-0.728,2.921-4.714,2.813-5.593c-0.161-1.352-1.761-3.698-3.934-3.504
		c-2.736,0.225-3.14,4.137-3.14,4.137C142.531,239.078,143.786,242.938,147.154,242.226z"/>
	<g>
		<path fill="#888888" d="M150.734,249.17c-0.091,0.287-0.309,1-0.117,1.623c0.374,1.412,1.604,1.471,1.604,1.471h1.768v-4.281
			H152.1C151.24,248.24,150.837,248.882,150.734,249.17z"/>
		<path fill="#888888" d="M167.554,247.563c0,0-3.848-2.949-6.101-6.145c-3.053-4.711-7.391-2.793-8.837-0.396
			c-1.441,2.387-3.694,3.916-4.022,4.314c-0.324,0.393-4.656,2.707-3.691,6.938c0.959,4.229,4.341,4.142,4.341,4.142
			s2.498,0.248,5.374-0.375c2.903-0.64,5.388,0.14,5.388,0.14s6.751,2.242,8.604-2.068
			C170.455,249.809,167.554,247.563,167.554,247.563z M156.005,253.976h-4.386c-1.897-0.367-2.641-1.646-2.75-1.858
			c-0.09-0.232-0.634-1.262-0.343-3.012c0.817-2.633,3.158-2.813,3.158-2.813h2.34v-2.836l1.979,0.023L156.005,253.976
			L156.005,253.976z M164.187,253.949h-5.054c-1.958-0.492-2.052-1.88-2.052-1.88v-5.53l2.052-0.03v4.979
			c0.119,0.524,0.795,0.63,0.795,0.63h2.083v-5.578h2.176V253.949z"/>
	</g>
</g>
<g>
	<g>
		<path fill="#888888" d="M259.652,247.959c1.747,1.055,3.873-0.086,4.339-1.56c0.622-1.972-0.414-4.989,0-7.313
			c0.984-5.545,3.276-8.988,7.897-10.873c1.012-0.412,2.232-0.871,3.56-0.926v-0.048c-0.376-0.511-2.308-0.317-3.17-0.293
			c-0.536,0.065-1.072,0.13-1.607,0.194c-1.024,0.276-2.049,0.553-3.072,0.83c-4.749,1.869-7.96,5.529-9.36,10.774
			C257.473,241.605,257.516,246.67,259.652,247.959z M288.612,239.721c-1.165-5.278-3.882-8.746-8.143-10.922
			c-1.137-0.58-2.47-1.225-4.144-1.219c-0.492,0.198-0.967,0.182-1.367,0.438c-1.161,0.75-1.801,2.736-0.778,4.146
			c1.014,1.399,4.19,2.19,5.752,3.168c3.161,1.979,7.635,6.452,6.729,12.188c-0.232,1.468-0.688,2.718-0.928,3.998
			c0.704-0.224,1.09-1.459,1.415-2.096C288.319,247.126,289.391,243.247,288.612,239.721z M279.689,245.229h0.098
			c0.729-1.356-0.896-3.041-1.218-3.948c-0.249-0.702-0.042-1.722-0.245-2.39c-0.74-2.453-2.425-3.342-5.704-3.314
			c-0.405,0.098-0.812,0.193-1.219,0.292c-1.372,0.535-2.263,1.679-2.682,3.169c-0.081,0.764-0.162,1.527-0.244,2.292
			c-0.388,1.168-1.334,2.029-1.316,3.754c0.049,0.033,0.099,0.064,0.146,0.097c0.623,0.272,1.166-0.203,1.462-0.438
			c0.212,0.375,0.424,0.748,0.635,1.122c-0.36,0.297-1.269,0.556-0.927,1.363c0.275,0.724,1.9,1.154,3.022,0.977
			c0.747-0.162,1.495-0.325,2.243-0.488c1.407,0.278,4.214,1.002,4.924-0.584c-0.012-0.842-0.524-0.887-0.976-1.268
			c0.179-0.357,0.358-0.717,0.537-1.072C278.642,244.988,279.031,245.42,279.689,245.229z M281.738,248.301
			c-4.24,2.058-8.975,7.019-15.942,4.826c-1.419-0.445-2.633-1.119-3.706-1.9c-0.906-0.659-2.241-1.547-2.731-2.584
			c-0.047-0.032-0.097-0.064-0.145-0.098c-0.034,0.033-0.065,0.065-0.099,0.098c0.245,1.619,1.664,3.005,2.536,4.095
			c2.616,3.276,8.699,6.471,14.967,4.924c2.433-0.599,4.439-1.601,6.145-2.924c0.694-0.541,1.729-1.407,2.097-2.243
			C285.888,250.141,284.052,248.27,281.738,248.301z"/>
	</g>
</g>
<g>
	<path fill="#888888" d="M154.071,328.85c1.039,3.227,3.387,4.094,5.605,3.662c2.999-0.584,4.765-3.46,4.185-6.563
		c-0.02-0.114-0.059-0.298-0.072-0.367c-0.193-1.045,0.501-2.051,1.547-2.246c1.789-0.334,2.211,1.422,2.211,1.422
		c0.045,0.171,0.082,0.345,0.116,0.521c0.813,4.362-2.063,8.555-6.424,9.368c-3.183,0.595-6.3-1.209-7.155-5.791"/>
	<path fill="#888888" d="M169.906,327.822c0-0.18-0.004-0.356-0.016-0.534c0,0-0.093-1.804-1.914-1.804
		c-1.063,0-1.933,0.861-1.933,1.924c0,0.07,0.005,0.259,0.005,0.374c0,3.157-2.56,5.716-5.717,5.716
		c-2.86,0-5.116-1.876-5.663-4.609c0.018,0.086-0.479-1.486,0.193-3.986c0.083-0.307,0.18-0.403,0.107-0.524
		c-0.037-0.059-0.193,0.118-0.193,0.118c-1.384,2.248-0.826,5.004-0.851,4.854c0.5,3.008,2.594,5.41,5.771,6.268
		c0.145,0.038,0.287,0.07,0.431,0.098c-0.16,0.01-0.323,0.014-0.488,0.014c-4.696,0-8.437-3.61-8.437-8.306
		c0-3.051,1.896-6.067,4.268-7.278c0.128-0.067,0.461-0.15,0.55-0.131c0.409,0.09,0.635,0.166,0.693,0.683
		c0.083,0.727-0.242,1.157-0.771,1.75c-0.203,0.227-0.361,0.414-0.362,0.414c-0.081,0.223,0.318,0.222,0.318,0.222
		s0.949,0.079,1.88-0.395c0.831-0.426,1.538-1.051,2.17-1.877c0.763-0.998,0.853-2.414,0.802-3.151c0-0.173,0.118-0.319,0.409-0.447
		c0.794-0.346,1.407-0.56,1.721-0.659c0.879-0.285,1.882-0.529,2.549-0.815c-0.313-0.056-0.629-0.128-0.871-0.222
		c-0.989-0.379-1.185-0.858-1.185-0.858l0.155,0.009c0,0,0.923,0.49,2.007,0.503c1.414,0.019,2.007-0.304,2.154-0.381
		c1.035-0.519,1.641-1.379,1.099-2.396c-0.314-0.588-1.26-0.74-1.684-0.752c-0.966-0.021-1.009,0.078-0.989-0.516
		c-0.002,0.048-0.038-2.441-2.869-3.393c0.091,0.023-3.521-1.674-8.893,1.832c-1.002,0.656-2.199,1.589-3.268,2.688
		c-0.888-0.195-2.186-0.617-4.249-0.015c-2.425,0.706-3.088,2.428-3.088,2.428s-0.302,0.875-0.064,0.959
		c0.473,0.169,1.729-0.851,2.826-0.457c1.178,0.423,0.761,1.489,0.716,1.578c-0.992,1.824-1.641,4.081-1.684,6.376
		c-0.13,6.902,5.389,13.301,13.335,13.453c1.708,0.033,3.465-0.273,4.968-0.857c0.313-0.121,0.599-0.248,0.857-0.376
		C167.745,334.195,169.906,331.262,169.906,327.822z M162.709,311.593c0,0.169-0.135,0.304-0.305,0.304
		c-0.167,0-0.304-0.135-0.304-0.304c0-0.168,0.137-0.306,0.304-0.306C162.574,311.287,162.709,311.424,162.709,311.593z
		 M161.984,310.778c0.203,0,0.396,0.045,0.569,0.125c-0.633,0.006-1.145,0.505-1.145,1.12c0,0.621,0.518,1.123,1.154,1.123
		c0.149,0,0.3-0.03,0.432-0.08c-0.25,0.274-0.608,0.449-1.012,0.449c-0.756,0-1.368-0.613-1.368-1.369
		C160.615,311.391,161.228,310.778,161.984,310.778z"/>
</g>
<g>
	<path fill="#888888" d="M398.155,241.968c-0.476-0.142-0.804-0.236-0.552-0.863c0.539-1.358,0.595-2.531,0.009-3.367
		c-1.098-1.566-4.102-1.482-7.544-0.041c0-0.002-1.079,0.472-0.802-0.383c0.528-1.703,0.449-3.131-0.375-3.953
		c-1.867-1.867-6.834,0.071-11.092,4.328c-3.189,3.189-5.042,6.571-5.042,9.493c0,5.591,7.17,8.989,14.186,8.989
		c9.194,0,15.313-5.341,15.313-9.583C402.254,244.024,400.094,242.569,398.155,241.968z M386.96,254.167
		c-5.598,0.552-10.43-1.977-10.793-5.653c-0.362-3.673,3.882-7.099,9.478-7.653c5.599-0.554,10.43,1.978,10.794,5.649
		C396.799,250.187,392.558,253.614,386.96,254.167z"/>
	<path fill="#888888" d="M404.261,231.737c-2.221-2.461-5.495-3.4-8.521-2.758l0,0c-0.701,0.148-1.146,0.836-0.995,1.535
		c0.147,0.699,0.837,1.146,1.534,0.996c2.151-0.456,4.479,0.212,6.06,1.96c1.574,1.75,2.005,4.134,1.329,6.226l0,0
		c-0.221,0.682,0.151,1.41,0.833,1.63s1.41-0.151,1.633-0.832c0-0.001,0-0.005,0-0.005
		C407.082,237.549,406.481,234.196,404.261,231.737"/>
	<path fill="#888888" d="M400.85,234.815c-1.08-1.199-2.676-1.653-4.149-1.342c-0.601,0.129-0.985,0.721-0.854,1.322
		c0.127,0.602,0.721,0.986,1.318,0.855v0.002c0.724-0.152,1.502,0.069,2.031,0.652c0.529,0.588,0.671,1.387,0.442,2.088h0.002
		c-0.188,0.584,0.132,1.213,0.717,1.402c0.587,0.188,1.216-0.132,1.404-0.718C402.222,237.647,401.934,236.013,400.85,234.815"/>
	<path fill="#888888" d="M387.519,243.688c-2.663-0.693-5.674,0.633-6.83,2.981c-1.178,2.392-0.039,5.049,2.652,5.919
		c2.786,0.896,6.072-0.479,7.215-3.061C391.682,247.001,390.277,244.401,387.519,243.688z M385.487,249.801
		c-0.544,0.863-1.701,1.242-2.575,0.845c-0.858-0.393-1.112-1.396-0.571-2.238c0.532-0.838,1.653-1.213,2.521-0.848
		C385.739,247.935,386.017,248.929,385.487,249.801z M387.27,247.511c-0.196,0.335-0.63,0.496-0.968,0.355
		c-0.334-0.137-0.438-0.51-0.248-0.838c0.194-0.327,0.609-0.487,0.942-0.356C387.333,246.796,387.456,247.175,387.27,247.511z"/>
</g>
<g>
	<path fill="#888888" d="M493.938,331.545c-0.029-0.057-0.214-0.307-0.214-0.328c0.013,0.009,0.228,0.252,0.256,0.282
		c1.646,1.708,3.587,3.066,5.872,3.641c5.423,1.358,10.541-1.992,12.128-6.877c0.416-1.284,0.62-2.612,0.428-4.132
		c-0.027-0.186-0.117-0.688-0.117-0.706c-0.152-0.774-0.654-2.255-1.956-3.036c-0.332-0.15-0.815-0.472-1.807-0.522
		c-1.603-0.086-2.792,0.812-3.594,2.048c-0.606,0.938-0.998,1.792-2.246,2.271c-0.349,0.133-0.796,0.196-1.202,0.148
		c-0.169-0.021-0.31-0.06-0.441-0.094c0.554-0.34,0.931-0.779,1.145-1.229c0.364-0.732,0.367-1.588,0.528-2.604
		c0.114-0.751,0.321-1.455,0.589-2.138c0.812-2.068,2.619-3.651,4.188-4.316c2.645-1.117,6.198-0.759,8.785,1.073
		c3.196,2.261,4.887,6.358,4.525,9.991c-0.04,0.411-0.093,0.828-0.19,1.307c-0.097,0.537-0.219,0.979-0.374,1.488
		c-0.289,0.956-0.876,2.279-1.206,2.816c-0.104,0.153-0.125,0.203-0.332,0.475c0.171-0.323,0.318-0.823,0.378-1.048
		c0.266-0.898,0.446-1.767,0.522-2.575c0.068-0.722,0.132-1.441,0.02-2.43c-0.04-0.53-0.16-1.249-0.313-1.772
		c-0.144-0.48-0.274-0.869-0.462-1.288c-0.55-1.207-1.152-2.081-2.014-2.978c-0.157-0.146-0.253-0.214-0.408-0.354
		c-0.046-0.035-0.151-0.121-0.179-0.11c0.243,0.377,0.578,1.041,0.813,1.548c0.472,1.091,0.871,2.177,1.081,3.43
		c0.521,3.112-0.031,6.358-1.457,8.897c-0.782,1.393-1.856,2.596-3.121,3.528c-0.912,0.68-2.036,1.241-3.091,1.577
		c-0.013,0.005,0.004,0-0.005,0.005c-1.225,0.426-2.519,0.576-3.871,0.62c-0.017-0.005-0.309,0.003-0.325-0.003
		c2.168-0.372,3.854-1.105,5.404-2.227c1.714-1.241,3.118-3.025,3.867-4.91c0.61-1.547,0.779-3.26,0.702-5.131
		c0.002,0.066,0.002-0.661-0.292-1.805c-0.103-0.47-0.344-1.044-0.58-1.532c-0.163-0.354-0.411-0.729-0.676-1.076
		c-0.021-0.029-0.063-0.055-0.085-0.081c-0.005,0,0.006,0,0,0c0.23,0.771,0.394,1.578,0.452,2.357
		c0.321,4.128-1.297,8.584-4.914,11.135c-0.353,0.246-0.782,0.521-1.229,0.769c-0.513,0.278-1.042,0.525-1.432,0.68
		c0,0.008-0.006,0-0.006,0.008c-1.074,0.372-2.27,0.713-3.534,0.727c-0.69,0.01-1.304,0.001-2.003-0.106
		c-0.318-0.034-0.535-0.086-0.795-0.139c-0.009,0,0.009,0.007,0,0.007c-0.246-0.063-0.485-0.122-0.747-0.213
		c-0.375-0.111-0.698-0.216-1.048-0.363c-1.538-0.587-2.941-1.726-4.069-2.973C494.774,332.706,494.37,332.182,493.938,331.545"/>
	<path fill="#888888" d="M508.546,322.407c-0.244,0.066-0.545,0.218-0.784,0.401c-0.677,0.563-0.852,1-1.294,1.465
		c-0.28,0.293-0.652,0.481-1.164,0.546c-0.37,0.044-0.786,0.013-1.102-0.096c-0.141-0.058-0.316-0.144-0.422-0.231
		c0.766-0.185,1.216-0.764,1.78-1.521c0.469-0.632,1.007-0.939,1.903-0.896C507.855,322.092,508.22,322.218,508.546,322.407"/>
	<path fill="#888888" d="M518.396,315.49c0.029,0.057,0.212,0.308,0.213,0.329c-0.015-0.007-0.227-0.246-0.256-0.282
		c-1.646-1.708-3.586-3.063-5.874-3.639c-5.421-1.357-10.542,1.99-12.125,6.874c-0.418,1.285-0.622,2.617-0.433,4.131
		c0.028,0.188,0.117,0.692,0.12,0.708c0.15,0.771,0.654,2.254,1.958,3.037c0.329,0.151,0.818,0.471,1.802,0.525
		c1.606,0.084,2.796-0.814,3.597-2.055c0.606-0.935,0.999-1.787,2.242-2.268c0.352-0.136,0.8-0.196,1.206-0.148
		c0.167,0.021,0.308,0.058,0.44,0.095c-0.555,0.339-0.93,0.777-1.146,1.225c-0.354,0.731-0.365,1.592-0.523,2.603
		c-0.116,0.758-0.323,1.463-0.588,2.142c-0.81,2.072-2.621,3.648-4.19,4.315c-2.646,1.119-6.194,0.761-8.783-1.069
		c-3.194-2.264-4.888-6.359-4.525-9.994c0.038-0.409,0.093-0.825,0.189-1.305c0.097-0.541,0.218-0.98,0.373-1.49
		c0.292-0.954,0.875-2.278,1.209-2.815c0.101-0.153,0.121-0.202,0.329-0.475c-0.172,0.324-0.319,0.827-0.381,1.047
		c-0.263,0.899-0.444,1.768-0.519,2.574c-0.067,0.723-0.134,1.444-0.022,2.431c0.042,0.526,0.164,1.25,0.314,1.775
		c0.14,0.48,0.271,0.869,0.465,1.29c0.549,1.203,1.148,2.079,2.01,2.973c0.158,0.147,0.257,0.217,0.414,0.357
		c0.044,0.032,0.146,0.118,0.176,0.108c-0.243-0.378-0.582-1.038-0.814-1.551c-0.471-1.091-0.868-2.168-1.082-3.427
		c-0.522-3.11,0.033-6.356,1.461-8.9c0.779-1.39,1.856-2.591,3.118-3.528c0.913-0.674,2.037-1.236,3.091-1.575
		c0.013-0.001-0.006,0.005,0.008-0.001c1.226-0.426,2.519-0.577,3.869-0.622c0.014,0.008,0.309-0.004,0.323,0.003
		c-2.167,0.371-3.852,1.104-5.401,2.227c-1.714,1.237-3.121,3.024-3.868,4.909c-0.612,1.55-0.776,3.258-0.699,5.128
		c-0.006-0.065-0.009,0.668,0.291,1.813c0.103,0.465,0.343,1.037,0.572,1.528c0.17,0.353,0.417,0.726,0.684,1.072
		c0.017,0.03,0.058,0.057,0.079,0.083c0.009,0-0.002,0.003,0,0c-0.227-0.771-0.392-1.579-0.452-2.357
		c-0.319-4.131,1.3-8.585,4.916-11.134c0.356-0.247,0.781-0.521,1.23-0.768c0.508-0.278,1.039-0.524,1.429-0.683
		c0-0.006,0.004,0.001,0.004-0.005c1.075-0.37,2.271-0.715,3.538-0.727c0.691-0.009,1.299-0.003,2.001,0.104
		c0.318,0.039,0.535,0.087,0.796,0.142c0.005,0-0.012-0.008,0-0.008c0.244,0.063,0.484,0.122,0.746,0.215
		c0.376,0.11,0.696,0.212,1.048,0.362c1.535,0.586,2.941,1.723,4.07,2.97C517.562,314.334,517.962,314.857,518.396,315.49"/>
</g>
<path fill="#888888" d="M376.28,308.58v26.758h26.758V308.58H376.28z M400.745,327.928h-4.899v-6.596
	c0-2.024-0.675-2.805-1.999-2.805c-1.609,0-2.259,1.143-2.259,2.779v4.074h1.547v2.543h-4.9v-6.592c0-2.025-0.676-2.806-1.999-2.806
	c-1.608,0-2.259,1.144-2.259,2.778v4.074h2.234v2.543h-7.13v-2.543h1.548v-6.617h-1.548v-2.543h4.9v1.764
	c0.702-1.245,1.921-1.998,3.557-1.998c1.688,0,3.245,0.805,3.814,2.518c0.601-1.569,2.136-2.582,3.815-2.518
	c2.102,0,4.022,1.271,4.022,4.049l0.008,5.35h1.547V327.928z"/>
<g>
	<g>
		<path fill="#888888" d="M272.418,321.277h-3.604c0.033-0.666,0.068-1.333,0.105-1.998c0.014-0.525,0.028-1.05,0.041-1.575
			c0.008-0.321,0.015-0.642,0.021-0.962c0.008-0.736,0.014-1.473,0.021-2.21h4.716c0.004-0.757,0.021-1.627-0.434-1.957
			c-0.274-0.198-1.802-0.104-2.327-0.104h-6.175c0.215-0.846,0.445-1.694,0.752-2.484c0.146-0.417,0.296-0.832,0.443-1.248
			c-0.512-0.002-0.931,0.131-1.291,0.286c-1.717,0.733-1.816,2.242-2.451,3.997c-0.617,1.699-1.327,3.307-2.042,4.875v0.011
			c2.211-0.006,3.428-1.563,3.858-3.373h2.654c-0.031,1.554-0.063,3.108-0.095,4.663c-0.021,0.694-0.042,1.389-0.063,2.083h-3.53
			c-0.436,0-1.242-0.084-1.565,0.054c-0.591,0.25-1.076,1.344-1.142,2.125c0.003,0.002,0.006,0.006,0.011,0.01h5.995
			c0.05,0.059-0.053,0.799-0.075,0.92c-0.177,0.924-0.319,1.813-0.612,2.611c-0.19,0.521-0.348,1.014-0.562,1.502
			c-0.886,2.034-2.221,3.78-3.753,5.181c-0.47,0.428-0.931,0.894-1.459,1.258v0.011c0.062,0.104,0.562,0.139,0.729,0.169
			c0.952,0.173,1.967-0.058,2.663-0.315c0.484-0.18,0.891-0.426,1.259-0.719c0.301-0.242,0.55-0.602,0.771-0.921
			c0.76-1.09,1.446-2.264,1.944-3.627c0.129-0.377,0.256-0.755,0.382-1.131c0.063-0.229,0.128-0.458,0.189-0.688v-0.021
			c1.653,1.983,3.307,3.97,4.959,5.953c0.112-0.16,0.112-0.453,0.159-0.666c0.148-0.672,0.225-1.722,0.021-2.399
			c-0.212-0.699-0.747-1.146-1.175-1.639c-0.82-0.945-1.643-1.881-2.484-2.802c-0.15,0.032-0.27,0.2-0.38,0.286
			c-0.325,0.254-0.649,0.508-0.975,0.761c0.26-0.726,0.378-1.494,0.55-2.315c0.091-0.425,0.175-0.925,0.169-1.406
			c1.891-0.004,3.778-0.008,5.67-0.012c0.1-0.591-0.202-1.925-0.509-2.125C273.615,321.207,272.76,321.277,272.418,321.277z
			 M275.527,312.121c-0.004,6.672-0.008,13.346-0.011,20.016c0.719,0.005,1.438,0.007,2.156,0.011
			c0.236,0.804,0.474,1.606,0.709,2.411c0.264-0.063,0.759-0.473,1.004-0.624c0.951-0.597,1.904-1.191,2.855-1.787h4.566v-20.026
			H275.527z M284.513,329.969h-2.577c-0.66,0.414-1.318,0.826-1.979,1.238c-0.175,0.107-0.371,0.31-0.581,0.359
			c-0.152-0.528-0.305-1.057-0.455-1.586c-0.366-0.003-0.733-0.007-1.1-0.012v-15.658h6.69L284.513,329.969L284.513,329.969z"/>
	</g>
</g>
</svg>
